# xmcd
#
# Track frame offsets:
#  150
#  19182
#  34955
#  51667
#  65960
#  78135
#  91055
#  109815
#  123157
#  132475
#  145865
#  159192
#  174342
#  189067
#  204842
#
# Disc length: 2905 seconds
#
# Revision: 0
# Processed by: cddbd v1.5.1PL0 Copyright (c) Steve Scherf et al.
# Submitted via: AltoMP3_Maker 3.0
#
DISCID=c40b570f
DTITLE=Bosse and Anita - Country Nostalgi
DYEAR=1900
DGENRE=
TTITLE0=Bortom gyllne sol
TTITLE1=jag vill spela ännu några år
TTITLE2=I´ll nerver be lonely again
TTITLE3=Åren flyr bort
TTITLE4=Jag har ett mål som väntar
TTITLE5=En sång en gång för längesen
TTITLE6=Det mesta har jag sett
TTITLE7=Vandring i ett regn
TTITLE8=En skimrande kort sekund
TTITLE9=Tag min hand
TTITLE10=The old country church
TTITLE11=Skönt att finnas till
TTITLE12=Vindens sång
TTITLE13=Wien i take my vacation in heaven
TTITLE14=Medans himlens stjärnor tindra
EXTD=
EXTT0=
EXTT1=
EXTT2=
EXTT3=
EXTT4=
EXTT5=
EXTT6=
EXTT7=
EXTT8=
EXTT9=
EXTT10=
EXTT11=
EXTT12=
EXTT13=
EXTT14=
PLAYORDER=
